<svg id="Capa_1" enable-background="new 0 0 501 501" height="512" viewBox="0 0 501 501" width="512" xmlns="http://www.w3.org/2000/svg"><g><path d="m495.499 245.531c-.286 135.066-109.866 244.469-244.999 244.469-113.827 0-209.524-77.625-237.042-182.825-.202-.774 2.171-.83 1.976-1.607-1.123-4.475-2.124-8.999-2.997-13.568-.229-1.198-3.022-3.119-3.233-4.323-2.434-13.859-3.704-28.12-3.704-42.677 0-60.146 21.673-115.229 57.635-157.867h5.752c25.748 0 46.621-20.873 46.621-46.621 39.503-26.13 87.02-41.12 138.074-40.493 134.748 1.657 242.204 110.755 241.917 245.512z" fill="#533672"/><path d="m463 269.672c0 95.269-77.231 172.5-172.5 172.5s-172.5-77.231-172.5-172.5 77.231-172.5 172.5-172.5 172.5 77.231 172.5 172.5z" fill="#644189"/><path d="m179.131 387-10.607-10.607 233.345-233.345 10.607 10.607z" fill="#4cacba"/><path d="m357.646 24.428c6.057 2.744 11.885 5.838 17.402 9.318 2.936 15.501 4.452 31.631 4.452 47.754 0 67.445-26.265 130.854-73.956 178.544-47.691 47.691-111.099 73.956-178.544 73.956-40.091 0-78.756-9.281-113.541-26.825-1.674-6.401-3.096-12.904-4.255-19.498 34.737 19.924 74.96 31.323 117.796 31.323 130.958 0 237.5-106.542 237.5-237.5 0-19.609-2.353-38.834-6.854-57.072z" fill="#95ced6"/><path d="m195.5 380.024c0 11.046-8.954 20-20 20s-20-8.954-20-20c0-11.045 8.954-20 20-20s20 8.955 20 20zm95-135c-11.046 0-20 8.955-20 20 0 11.046 8.954 20 20 20s20-8.954 20-20c0-11.045-8.954-20-20-20zm115-115c-11.046 0-20 8.955-20 20 0 11.046 8.954 20 20 20s20-8.954 20-20c0-11.045-8.954-20-20-20z" fill="#f1de96"/><path d="m310.5 265.024c0 2.931-.631 5.716-1.764 8.224-2.509 1.133-5.293 1.764-8.224 1.764-11.046 0-20-8.954-20-20 0-2.931.631-5.716 1.764-8.224 2.509-1.133 5.293-1.764 8.224-1.764 11.046 0 20 8.955 20 20zm95-135c-2.931 0-5.716.631-8.224 1.764-1.133 2.509-1.764 5.293-1.764 8.224 0 11.046 8.954 20 20 20 2.932 0 5.716-.631 8.224-1.764 1.133-2.509 1.764-5.293 1.764-8.224 0-11.045-8.954-20-20-20zm-230 230c-2.931 0-5.716.631-8.224 1.764-1.133 2.509-1.764 5.293-1.764 8.224 0 11.046 8.954 20 20 20 2.932 0 5.716-.631 8.224-1.764 1.133-2.509 1.764-5.293 1.764-8.224 0-11.045-8.954-20-20-20z" fill="#f9f1d2"/><path d="m115.509 40.511 34.806 34.806c13.668 13.668 13.668 35.829 0 49.497-13.668 13.668-35.829 13.668-49.497 0l-37.683-37.681c15.116-17.922 32.757-33.645 52.374-46.622z" fill="#4cacba"/><path d="m83.843 65.415c9.838-9.134 20.427-17.469 31.666-24.903l34.806 34.806c9.873 9.873 12.614 24.175 8.224 36.509-12.333 4.389-26.636 1.648-36.509-8.224z" fill="#95ced6"/><path d="m133.011 102.848h105.416c7.082 0 13.046 5.292 13.89 12.323l14.521 120.982c.36 3.001-2.185 5.546-5.186 5.186l-120.982-14.521c-7.031-.844-12.323-6.809-12.323-13.89v-105.417c.001-2.575 2.089-4.663 4.664-4.663z" fill="#e9cc5a"/><path d="m264.817 219.317-104.147-12.5c-7.031-.844-12.323-6.809-12.323-13.89v-90.079h90.079c7.082 0 13.046 5.292 13.89 12.323z" fill="#fff36c"/><path d="m219.86 196.62c-9.17 8.096-23.172 8.287-32.539.418-9.341-7.847-11.389-20.709-6.145-30.756l-36.432-36.432c-2.929-2.929-2.929-7.678 0-10.607 2.929-2.929 7.678-2.929 10.607 0l36.432 36.432c9.425-4.919 21.327-3.422 29.242 4.494 10.138 10.138 9.749 26.815-1.165 36.451z" fill="#c3a01a"/><path d="m150.315 75.317c13.668 13.668 13.668 35.829 0 49.497-13.668 13.668-35.829 13.668-49.497 0l-3.536-3.536 49.497-49.497z" fill="#edd578"/><path d="m158.539 111.826c-12.333 4.389-26.636 1.648-36.509-8.224l-3.536-3.536 28.284-28.284 3.536 3.536c9.873 9.872 12.614 24.175 8.225 36.508z" fill="#f5e8b4"/><path d="m153.85 64.711c2.929 2.929 2.929 7.678 0 10.607l-53.033 53.033c-2.929 2.929-7.678 2.929-10.607 0-2.929-2.929-2.929-7.678 0-10.607l53.033-53.033c2.93-2.929 7.678-2.929 10.607 0z" fill="#f5e8b4"/><path d="m153.85 64.711c2.929 2.929 2.929 7.678 0 10.607l-31.213 31.213c-2.929 2.929-7.678 2.929-10.607 0-2.929-2.929-2.929-7.678 0-10.607l31.213-31.213c2.93-2.929 7.678-2.929 10.607 0z" fill="#f9f1d2"/><path d="m379.5 501c-41.421 0-75-33.579-75-75v-90c0-41.421 33.579-75 75-75 41.421 0 75 33.579 75 75v90c0 41.421-33.579 75-75 75z" fill="#3f97a4"/><path d="m454.5 336v90c0 36.284-25.766 66.55-60 73.5-34.234-6.949-60-37.215-60-73.5v-90c0-36.284 25.766-66.55 60-73.5 34.234 6.95 60 37.216 60 73.5z" fill="#4cacba"/><path d="m379.5 451c-24.853 0-45-20.147-45-45v-100c0-24.853 20.147-45 45-45 24.853 0 45 20.147 45 45v100c0 24.853-20.147 45-45 45z" fill="#95ced6"/><path d="m379.5 341c-6.904 0-12.5-5.596-12.5-12.5v-35c0-6.904 5.596-12.5 12.5-12.5 6.904 0 12.5 5.596 12.5 12.5v35c0 6.904-5.597 12.5-12.5 12.5z" fill="#36818b"/><path d="m392 306.5v22c0 6.904-5.596 12.5-12.5 12.5-6.903 0-12.5-5.596-12.5-12.5v-22c0 6.904 5.596 12.5 12.5 12.5 6.904 0 12.5-5.596 12.5-12.5z" fill="#23535a"/></g></svg>