<?xml version="1.0" encoding="utf-8"?>
<!-- Generator: Adobe Illustrator 21.1.0, SVG Export Plug-In . SVG Version: 6.00 Build 0)  -->
<svg version="1.1" id="Capa_1" xmlns="http://www.w3.org/2000/svg" xmlns:xlink="http://www.w3.org/1999/xlink" x="0px" y="0px"
	 viewBox="0 0 82.9 84.8" style="enable-background:new 0 0 82.9 84.8;" xml:space="preserve">
<style type="text/css">
	.st0{fill:#533672;}
	.st1{fill:#644189;}
	.st2{fill:#4CACBA;}
	.st3{fill:#95CED6;}
	.st4{fill:#F1DE96;}
	.st5{fill:#F9F1D2;}
	.st6{fill:#E9CC5A;}
	.st7{fill:#FFF36C;}
	.st8{fill:#C3A01A;}
	.st9{fill:#EDD578;}
	.st10{fill:#F5E8B4;}
	.st11{fill:#3F97A4;}
	.st12{fill:#36818B;}
	.st13{fill:#23535A;}
</style>
<g>
	<path class="st0" d="M82.9,41.5c0,22.9-18.6,41.4-41.4,41.4C22.2,82.9,6,69.8,1.3,52c0-0.1,0.4-0.1,0.3-0.3
		c-0.2-0.8-0.4-1.5-0.5-2.3c0-0.2-0.5-0.5-0.5-0.7C0.2,46.3,0,43.9,0,41.4C0,31.3,3.7,22,9.8,14.7h1c4.4,0,7.9-3.5,7.9-7.9
		C25.3,2.4,33.3-0.1,42,0C64.8,0.3,82.9,18.7,82.9,41.5L82.9,41.5z"/>
	<path class="st1" d="M77.4,45.6c0,16.1-13.1,29.2-29.2,29.2S19,61.7,19,45.6s13.1-29.2,29.2-29.2S77.4,29.5,77.4,45.6z"/>
	<path class="st2" d="M29.4,65.5l-1.8-1.8l39.5-39.5l1.8,1.8L29.4,65.5z"/>
	<path class="st3" d="M59.6,4.1c1,0.5,2,1,2.9,1.6c0.5,2.6,0.8,5.4,0.8,8.1c0,11.4-4.4,22.1-12.5,30.2C42.7,52.1,32,56.5,20.6,56.5
		c-6.8,0-13.3-1.6-19.2-4.5c-0.3-1.1-0.5-2.2-0.7-3.3C6.5,52,13.3,54,20.6,54c22.2,0,40.2-18,40.2-40.2C60.7,10.5,60.3,7.2,59.6,4.1
		z"/>
	<path class="st4" d="M32.1,64.3c0,1.9-1.5,3.4-3.4,3.4s-3.4-1.5-3.4-3.4c0-1.9,1.5-3.4,3.4-3.4S32.1,62.4,32.1,64.3z M48.2,41.5
		c-1.9,0-3.4,1.5-3.4,3.4c0,1.9,1.5,3.4,3.4,3.4c1.9,0,3.4-1.5,3.4-3.4C51.6,43,50.1,41.5,48.2,41.5z M67.7,22
		c-1.9,0-3.4,1.5-3.4,3.4c0,1.9,1.5,3.4,3.4,3.4c1.9,0,3.4-1.5,3.4-3.4C71.1,23.5,69.5,22,67.7,22z"/>
	<path class="st5" d="M51.6,44.8c0,0.5-0.1,1-0.3,1.4c-0.4,0.2-0.9,0.3-1.4,0.3c-1.9,0-3.4-1.5-3.4-3.4c0-0.5,0.1-1,0.3-1.4
		c0.4-0.2,0.9-0.3,1.4-0.3C50.1,41.5,51.6,43,51.6,44.8z M67.7,22c-0.5,0-1,0.1-1.4,0.3c-0.2,0.4-0.3,0.9-0.3,1.4
		c0,1.9,1.5,3.4,3.4,3.4c0.5,0,1-0.1,1.4-0.3c0.2-0.4,0.3-0.9,0.3-1.4C71.1,23.5,69.5,22,67.7,22z M28.8,60.9c-0.5,0-1,0.1-1.4,0.3
		c-0.2,0.4-0.3,0.9-0.3,1.4c0,1.9,1.5,3.4,3.4,3.4c0.5,0,1-0.1,1.4-0.3c0.2-0.4,0.3-0.9,0.3-1.4C32.1,62.4,30.6,60.9,28.8,60.9z"/>
	<path class="st2" d="M18.6,6.9l5.9,5.9c2.3,2.3,2.3,6.1,0,8.4s-6.1,2.3-8.4,0l-6.4-6.4C12.3,11.7,15.3,9,18.6,6.9z"/>
	<path class="st3" d="M13.3,11.1c1.7-1.5,3.5-3,5.4-4.2l5.9,5.9c1.7,1.7,2.1,4.1,1.4,6.2c-2.1,0.7-4.5,0.3-6.2-1.4L13.3,11.1z"/>
	<path class="st6" d="M21.6,17.4h17.8c1.2,0,2.2,0.9,2.3,2.1L44.2,40c0.1,0.5-0.4,0.9-0.9,0.9l-20.5-2.5c-1.2-0.1-2.1-1.2-2.1-2.3
		V18.2C20.8,17.8,21.1,17.4,21.6,17.4L21.6,17.4z"/>
	<path class="st7" d="M43.9,37.1L26.3,35c-1.2-0.1-2.1-1.2-2.1-2.3V17.4h15.2c1.2,0,2.2,0.9,2.3,2.1L43.9,37.1z"/>
	<path class="st8" d="M36.3,33.3c-1.6,1.4-3.9,1.4-5.5,0.1c-1.6-1.3-1.9-3.5-1-5.2L23.6,22c-0.5-0.5-0.5-1.3,0-1.8
		c0.5-0.5,1.3-0.5,1.8,0l6.2,6.2c1.6-0.8,3.6-0.6,4.9,0.8C38.2,28.8,38.1,31.6,36.3,33.3L36.3,33.3z"/>
	<path class="st9" d="M24.5,12.7c2.3,2.3,2.3,6.1,0,8.4s-6.1,2.3-8.4,0l-0.6-0.6l8.4-8.4L24.5,12.7z"/>
	<path class="st10" d="M25.9,18.9c-2.1,0.7-4.5,0.3-6.2-1.4l-0.6-0.6l4.8-4.8l0.6,0.6C26.2,14.4,26.6,16.8,25.9,18.9z"/>
	<path class="st10" d="M25.1,10.9c0.5,0.5,0.5,1.3,0,1.8l-9,9c-0.5,0.5-1.3,0.5-1.8,0c-0.5-0.5-0.5-1.3,0-1.8l9-9
		C23.8,10.5,24.6,10.5,25.1,10.9L25.1,10.9z"/>
	<path class="st5" d="M25.1,10.9c0.5,0.5,0.5,1.3,0,1.8L19.8,18c-0.5,0.5-1.3,0.5-1.8,0c-0.5-0.5-0.5-1.3,0-1.8l5.3-5.3
		C23.8,10.5,24.6,10.5,25.1,10.9z"/>
	<path class="st11" d="M63.3,84.8c-7,0-12.7-5.7-12.7-12.7V56.8c0-7,5.7-12.7,12.7-12.7S76,49.8,76,56.8v15.2
		C76,79.1,70.3,84.8,63.3,84.8z"/>
	<path class="st2" d="M76,56.8v15.2c0,6.1-4.4,11.3-10.2,12.4c-5.8-1.2-10.2-6.3-10.2-12.4V56.8c0-6.1,4.4-11.3,10.2-12.4
		C71.6,45.6,76,50.7,76,56.8z"/>
	<path class="st3" d="M63.3,76.3c-4.2,0-7.6-3.4-7.6-7.6V51.8c0-4.2,3.4-7.6,7.6-7.6s7.6,3.4,7.6,7.6v16.9
		C70.9,72.9,67.5,76.3,63.3,76.3z"/>
	<path class="st12" d="M63.3,57.7c-1.2,0-2.1-0.9-2.1-2.1v-5.9c0-1.2,0.9-2.1,2.1-2.1c1.2,0,2.1,0.9,2.1,2.1v5.9
		C65.4,56.7,64.4,57.7,63.3,57.7z"/>
	<path class="st13" d="M65.4,51.9v3.7c0,1.2-0.9,2.1-2.1,2.1c-1.2,0-2.1-0.9-2.1-2.1v-3.7c0,1.2,0.9,2.1,2.1,2.1
		C64.4,54,65.4,53,65.4,51.9z"/>
</g>
</svg>
